<?xml version="1.0" encoding="UTF-8" standalone="no"?>
<svg xmlns="http://www.w3.org/2000/svg" width="600" height="600" viewBox="0 0 600 600">
    <path style="fill: #fff" transform="translate(300,300) scale(0.03875,-0.03875)" d="M-7344-12 c0,1005,331,1879,992,2620c0,947,383,1805,1148,2576 c763,768,1617,1152,2564,1152c747,672,1623,1008,2628,1008 c1005,0,1879-331,2620-992c947,0,1805-383,2576-1148 c768-763,1152-1617,1152-2564c672-747,1008-1623,1008-2628 c0-1005-331-1879-992-2620c0-947-383-1805-1148-2576 c-763-768-1617-1152-2564-1152c-747-672-1623-1008-2628-1008 c-1005,0-1879,331-2620,992c-947,0-1805,383-2576,1148 c-768,763-1152,1617-1152,2564c-672,747-1008,1623-1008,2628ZM-6336,0 c0-377,72-748,216-1112c200,561,508,1047,924,1460 c779,776,1704,1164,2776,1164c595,0,1156-128,1684-384 c-133,293-291,549-472,768c-585,676-1291,1014-2117,1014 c-826,0-1534-273-2125-818c-591-545-886-1243-886-2092ZM-5336-2423 c0-809,283-1497,848-2065c281-281,599-495,954-640 c-263,541-394,1137-394,1786c0,769,240,1497,721,2182 c481,685,1110,1168,1889,1448c-347,139-713,208-1098,208 c-811,0-1500-284-2068-853c-568-569-852-1257-852-2066ZM-5128,3534 c541,263,1137,394,1786,394c769,0,1497-240,2182-721 c685-481,1168-1110,1448-1889c139,347,208,713,208,1098 c0,811-284,1500-853,2068c-569,568-1257,852-2066,852 c-809,0-1497-283-2065-848c-281-281-495-599-640-954ZM-2910-3325 c0-826,273-1534,818-2125c545-591,1243-886,2092-886 c377,0,748,72,1112,216c-561,200-1047,508-1460,924 c-776,779-1164,1704-1164,2776c0,595,128,1156,384,1684 c-293-133-549-291-768-472c-676-585-1014-1291-1014-2117ZM-1112,6120 c561-200,1047-508,1460-924c776-779,1164-1704,1164-2776 c0-595-128-1156-384-1684c293,133,549,291,768,472 c676,585,1014,1291,1014,2117c0,826-273,1534-818,2125 c-545,591-1243,886-2092,886c-377,0-748-72-1112-216ZM-496-2416 c0-811,284-1500,853-2068c569-568,1257-852,2066-852 c809,0,1497,283,2065,848c281,281,495,599,640,954 c-541-263-1137-394-1786-394c-769,0-1497,240-2182,721 c-685,481-1168,1110-1448,1889c-139-347-208-713-208-1098ZM736-1128 c133-293,291-549,472-768c585-676,1291-1014,2117-1014 c826,0,1534,273,2125,818c591,545,886,1243,886,2092c0,377-72,748-216,1112 c-200-561-508-1047-924-1460c-779-776-1704-1164-2776-1164 c-595,0-1156,128-1684,384ZM1318-288c347-139,713-208,1098-208 c811,0,1500,284,2068,853c568,569,852,1257,852,2066c0,809-283,1497-848,2065 c-281,281-599,495-954,640c263-541,394-1137,394-1786 c0-769-240-1497-721-2182c-481-685-1110-1168-1889-1448Z"/></svg>